<?xml version="1.0" encoding="UTF-8"?>
<svg id="Layer_2" data-name="Layer 2" xmlns="http://www.w3.org/2000/svg" viewBox="0 0 266.7 105.23">
  <defs>
    <style>
      .cls-1 {
        fill: #fff;
      }

      .cls-2 {
        fill: #00b8f7;
      }

      .cls-3 {
        fill: #002d3f;
      }

      .cls-4 {
        fill: #0272b8;
      }

      .cls-5 {
        fill: #63cdee;
      }
    </style>
  </defs>
  <g id="Layer_1-2" data-name="Layer 1">
    <g>
      <g>
        <g>
          <path class="cls-3" d="M250.35,87.94c-31.6,30.24-83.43,8.34-83.78-35.33.35-43.66,52.18-65.57,83.78-35.33,19.74,19.01,19.74,51.66,0,70.67Z"/>
          <path class="cls-4" d="M194.78,3.75c-19.73,7.51-33.4,27.76-33.21,48.86-.19,21.1,13.49,41.36,33.21,48.87,34.33,13.73,72.04-11.98,71.93-48.87.11-36.88-37.6-62.59-71.93-48.86ZM166.56,52.61c.35-43.66,52.18-65.57,83.78-35.33,19.74,19.01,19.74,51.66,0,70.67-31.6,30.24-83.43,8.34-83.78-35.33Z"/>
        </g>
        <path class="cls-1" d="M206.93,52.61c-.16,8.9,9.82,15.16,17.63,9.54,6.36-4.39,6.36-14.7,0-19.09-7.81-5.61-17.79.65-17.63,9.55h0ZM191.94,52.61c-.08-15.58,16.98-25.48,30.23-17.26,12.8,7.78,12.8,26.74,0,34.52-13.25,8.22-30.3-1.68-30.23-17.26h0Z"/>
        <path class="cls-5" d="M191.93,52.61c-.02,22.11,26.05,35.09,43.47,20.39,12.41-10.4,12.41-30.37,0-40.77-17.41-14.7-43.49-1.72-43.47,20.39h0ZM176.94,52.61c-.11-20.44,17.78-36.91,38.08-34.75,17.81,1.64,31.62,17.43,31.42,34.75.2,17.31-13.6,33.11-31.42,34.75-20.29,2.16-38.19-14.31-38.08-34.75h0Z"/>
        <path class="cls-2" d="M176.87,52.61c.12,34.81,41.69,53.21,67.47,29.32,16.82-15.54,16.82-43.11,0-58.65-25.77-23.89-67.36-5.48-67.47,29.32h0ZM166.88,52.61c-.21-18.93,12.35-37.06,30.16-43.4,30.06-11.19,62.39,11.57,62.26,43.4.13,31.83-32.2,54.6-62.26,43.4-17.81-6.34-30.37-24.46-30.16-43.4h0Z"/>
      </g>
      <path class="cls-1" d="M48.28,20.11c9.62,0,17.78,2.43,24.47,7.3,3.54,2.6,6.01,5.57,7.42,8.92,1.41,3.35,2.12,7.95,2.12,13.81l-.17,12.36c0,8.57.61,14.13,1.82,16.67.61,1.22,1.19,1.99,1.74,2.32.55.33,1.71.64,3.48.91,1.77.28,2.65,1.44,2.65,3.48,0,2.65-1.07,5.42-3.19,8.29-2.13,2.88-4.88,5.28-8.25,7.22-4.15,2.43-8.49,3.65-13.02,3.65-5.81,0-10.4-1.99-13.77-5.97-1.16-1.44-2.24-2.16-3.23-2.16-1.11,0-2.57.69-4.4,2.07-5.53,4.04-11.81,6.06-18.83,6.06s-13.11-1.55-17.59-4.64c-2.93-2.05-5.25-4.71-6.97-8-1.71-3.29-2.57-6.73-2.57-10.33,0-5.75,2.32-10.84,6.97-15.26,7.24-6.97,18.08-10.48,32.52-10.53,3.21,0,5.23-.32,6.06-.95.83-.63,1.24-2.11,1.24-4.44,0-5.86-.61-10.11-1.83-12.73-1.22-2.63-3.21-3.94-5.97-3.94-1.66,0-3.14.5-4.44,1.49-1.3,1-2.92,2.82-4.85,5.47-4.92,7.02-10.07,10.53-15.43,10.53-2.71,0-4.92-.8-6.64-2.41-1.71-1.6-2.57-3.7-2.57-6.3s1.06-5.31,3.19-7.96c2.13-2.65,5.02-4.98,8.67-6.97,10.01-5.31,20.46-7.96,31.35-7.96ZM42.72,68.13c-2.43,0-4.55,1-6.35,2.99-1.8,1.99-2.7,4.37-2.7,7.13s.64,4.8,1.91,6.43c1.27,1.63,2.96,2.45,5.06,2.45,4.42,0,6.64-3.73,6.64-11.2,0-3.04-.32-5.09-.95-6.14-.64-1.05-1.84-1.6-3.61-1.66Z"/>
      <path class="cls-1" d="M136.51,41.92v28.04c0,3.32.82,6.03,2.45,8.13,1.63,2.1,3.72,3.15,6.26,3.15,2.16,0,5-1,8.54-2.99.83-.5,1.66-.75,2.49-.75,1.33,0,2.54.8,3.65,2.41,1.11,1.6,1.66,3.35,1.66,5.23,0,3.43-1.88,6.72-5.64,9.87-7.85,6.69-17.36,10.04-28.53,10.04-8.85,0-15.95-2.5-21.32-7.51-5.36-5-8.05-11.6-8.05-19.78v-38.32c0-1.27-.15-2.06-.46-2.36-.3-.3-1.09-.46-2.36-.46h-8.54c-1.6,0-2.63-.26-3.07-.79-.44-.53-.66-1.75-.66-3.69v-3.65c.06-1.66.69-2.87,1.91-3.65L122.83.94c.94-.5,2.1-.75,3.48-.75h6.72c1.38,0,2.31.32,2.78.95.47.64.7,1.9.7,3.77v11.2c0,1.66.26,2.74.79,3.23.53.5,1.64.75,3.36.75h15.34c2.05,0,3.37.37,3.98,1.12.61.75.91,2.34.91,4.77v4.89c0,2.65-.39,4.49-1.16,5.52-.78,1.02-2.18,1.53-4.23,1.53h-15.01c-1.55,0-2.6.28-3.15.83s-.83,1.6-.83,3.15Z"/>
    </g>
  </g>
</svg>